<svg width="327" height="59" viewBox="0 0 327 59" fill="none" xmlns="http://www.w3.org/2000/svg">
<path d="M0 15C0 6.71573 6.71573 0 15 0H312C320.284 0 327 6.71573 327 15V59H0V15Z" fill="white"/>
<path d="M77.1641 24.6914H74.0967L75.6348 20.5518L77.1641 24.6914ZM78.0605 27.0293L79.1416 30H82.0244L77.0674 17.3965H74.1934L69.2363 30H72.1191L73.2002 27.0293H78.0605ZM89.2314 17.1328C87.3066 17.1328 85.6807 17.7744 84.3623 19.0576C83.0439 20.3408 82.3848 21.8877 82.3848 23.6982C82.3848 25.5088 83.0439 27.0645 84.3623 28.3477C85.6807 29.6309 87.3066 30.2725 89.2314 30.2725C89.8818 30.2725 90.5146 30.1846 91.1299 30C91.7451 29.8242 92.2373 29.6221 92.6152 29.4023C92.9932 29.1826 93.3447 28.9277 93.6787 28.6377C94.0127 28.3477 94.2236 28.1455 94.3203 28.0312C94.417 27.917 94.4873 27.8203 94.54 27.75L92.9141 26.0361L92.7734 26.2207C92.6768 26.3525 92.5273 26.502 92.3164 26.6777C92.1055 26.8535 91.8594 27.0293 91.5869 27.2051C91.3057 27.3809 90.9629 27.5303 90.541 27.6533C90.1191 27.7764 89.6885 27.8379 89.2314 27.8379C88.0537 27.8379 87.0693 27.4424 86.2783 26.6514C85.4873 25.8604 85.0918 24.876 85.0918 23.6982C85.0918 22.5205 85.4873 21.5361 86.2783 20.7451C87.0693 19.9541 88.0537 19.5586 89.2314 19.5586C89.6533 19.5586 90.0752 19.6289 90.4883 19.7607C90.8926 19.8926 91.2266 20.0332 91.4814 20.1914C91.7275 20.3496 91.9648 20.5254 92.1758 20.7275C92.3867 20.9385 92.5273 21.0791 92.5889 21.167C92.6504 21.2549 92.7031 21.3164 92.7383 21.3604L94.4521 19.6465L94.25 19.3828C94.1182 19.2158 93.9072 19.0049 93.6084 18.7588C93.3096 18.5127 92.9756 18.2666 92.5889 18.0205C92.2021 17.7744 91.7188 17.5723 91.1211 17.3965C90.5234 17.2207 89.8906 17.1328 89.2314 17.1328ZM102.45 17.1328C100.525 17.1328 98.8994 17.7744 97.5811 19.0576C96.2627 20.3408 95.6035 21.8877 95.6035 23.6982C95.6035 25.5088 96.2627 27.0645 97.5811 28.3477C98.8994 29.6309 100.525 30.2725 102.45 30.2725C103.101 30.2725 103.733 30.1846 104.349 30C104.964 29.8242 105.456 29.6221 105.834 29.4023C106.212 29.1826 106.563 28.9277 106.897 28.6377C107.231 28.3477 107.442 28.1455 107.539 28.0312C107.636 27.917 107.706 27.8203 107.759 27.75L106.133 26.0361L105.992 26.2207C105.896 26.3525 105.746 26.502 105.535 26.6777C105.324 26.8535 105.078 27.0293 104.806 27.2051C104.524 27.3809 104.182 27.5303 103.76 27.6533C103.338 27.7764 102.907 27.8379 102.45 27.8379C101.272 27.8379 100.288 27.4424 99.4971 26.6514C98.7061 25.8604 98.3105 24.876 98.3105 23.6982C98.3105 22.5205 98.7061 21.5361 99.4971 20.7451C100.288 19.9541 101.272 19.5586 102.45 19.5586C102.872 19.5586 103.294 19.6289 103.707 19.7607C104.111 19.8926 104.445 20.0332 104.7 20.1914C104.946 20.3496 105.184 20.5254 105.395 20.7275C105.605 20.9385 105.746 21.0791 105.808 21.167C105.869 21.2549 105.922 21.3164 105.957 21.3604L107.671 19.6465L107.469 19.3828C107.337 19.2158 107.126 19.0049 106.827 18.7588C106.528 18.5127 106.194 18.2666 105.808 18.0205C105.421 17.7744 104.938 17.5723 104.34 17.3965C103.742 17.2207 103.109 17.1328 102.45 17.1328ZM115.317 27.8379C114.544 27.8379 113.885 27.5566 113.34 26.9854C112.795 26.4141 112.522 25.7109 112.522 24.8672V17.3965H109.824V24.8672C109.824 26.4053 110.343 27.6885 111.389 28.7256C112.426 29.7627 113.735 30.2812 115.309 30.2812C116.882 30.2812 118.191 29.7627 119.237 28.7256C120.274 27.6885 120.802 26.4053 120.802 24.8672V17.3965H118.104V24.8672C118.104 25.7109 117.831 26.4229 117.286 26.9854C116.741 27.5566 116.082 27.8379 115.317 27.8379ZM123.957 30H126.664V25.5879H129.002L131.428 30H134.311L131.612 25.2275L131.841 25.1045C131.999 25.0342 132.184 24.9023 132.412 24.709C132.632 24.5156 132.852 24.2871 133.062 24.0146C133.273 23.751 133.458 23.3906 133.616 22.9512C133.774 22.5117 133.854 22.0459 133.854 21.5361C133.854 20.376 133.449 19.4004 132.632 18.6006C131.814 17.8008 130.777 17.3965 129.529 17.3965H123.948L123.957 30ZM131.155 21.5361C131.155 21.9932 130.997 22.3799 130.672 22.6963C130.347 23.0127 129.934 23.1621 129.441 23.1621H126.655V19.8311H129.441C129.934 19.8311 130.347 19.998 130.672 20.3145C130.997 20.6396 131.155 21.0439 131.155 21.5361ZM143.223 24.6914H140.155L141.693 20.5518L143.223 24.6914ZM144.119 27.0293L145.2 30H148.083L143.126 17.3965H140.252L135.295 30H138.178L139.259 27.0293H144.119ZM155.29 17.1328C153.365 17.1328 151.739 17.7744 150.421 19.0576C149.103 20.3408 148.443 21.8877 148.443 23.6982C148.443 25.5088 149.103 27.0645 150.421 28.3477C151.739 29.6309 153.365 30.2725 155.29 30.2725C155.94 30.2725 156.573 30.1846 157.188 30C157.804 29.8242 158.296 29.6221 158.674 29.4023C159.052 29.1826 159.403 28.9277 159.737 28.6377C160.071 28.3477 160.282 28.1455 160.379 28.0312C160.476 27.917 160.546 27.8203 160.599 27.75L158.973 26.0361L158.832 26.2207C158.735 26.3525 158.586 26.502 158.375 26.6777C158.164 26.8535 157.918 27.0293 157.646 27.2051C157.364 27.3809 157.021 27.5303 156.6 27.6533C156.178 27.7764 155.747 27.8379 155.29 27.8379C154.112 27.8379 153.128 27.4424 152.337 26.6514C151.546 25.8604 151.15 24.876 151.15 23.6982C151.15 22.5205 151.546 21.5361 152.337 20.7451C153.128 19.9541 154.112 19.5586 155.29 19.5586C155.712 19.5586 156.134 19.6289 156.547 19.7607C156.951 19.8926 157.285 20.0332 157.54 20.1914C157.786 20.3496 158.023 20.5254 158.234 20.7275C158.445 20.9385 158.586 21.0791 158.647 21.167C158.709 21.2549 158.762 21.3164 158.797 21.3604L160.511 19.6465L160.309 19.3828C160.177 19.2158 159.966 19.0049 159.667 18.7588C159.368 18.5127 159.034 18.2666 158.647 18.0205C158.261 17.7744 157.777 17.5723 157.18 17.3965C156.582 17.2207 155.949 17.1328 155.29 17.1328ZM163.824 17.3965H160.941L165.441 25.5V30H168.148V25.5L172.648 17.3965H169.766L166.795 22.8018L163.824 17.3965ZM184.883 22.8896L180.567 17.3965H178.133V30H180.84V21.6328L184.883 26.7568L188.935 21.5977V30H191.633V17.3965H189.242L184.883 22.8896ZM197.574 27.5742V24.7793H202.698V22.3535H197.574V19.8311H204.14V17.3965H194.867V30H204.324V27.5742H197.574ZM205.581 17.3965V19.8311H209.185V30H211.883V19.8311H215.478V17.3965H205.581ZM217.455 30H220.162V25.5879H222.5L224.926 30H227.809L225.11 25.2275L225.339 25.1045C225.497 25.0342 225.682 24.9023 225.91 24.709C226.13 24.5156 226.35 24.2871 226.561 24.0146C226.771 23.751 226.956 23.3906 227.114 22.9512C227.272 22.5117 227.352 22.0459 227.352 21.5361C227.352 20.376 226.947 19.4004 226.13 18.6006C225.312 17.8008 224.275 17.3965 223.027 17.3965H217.446L217.455 30ZM224.653 21.5361C224.653 21.9932 224.495 22.3799 224.17 22.6963C223.845 23.0127 223.432 23.1621 222.939 23.1621H220.153V19.8311H222.939C223.432 19.8311 223.845 19.998 224.17 20.3145C224.495 20.6396 224.653 21.0439 224.653 21.5361ZM230.234 30H232.941V17.3965H230.234V30ZM242.302 17.1328C240.377 17.1328 238.751 17.7744 237.433 19.0576C236.114 20.3408 235.455 21.8877 235.455 23.6982C235.455 25.5088 236.114 27.0645 237.433 28.3477C238.751 29.6309 240.377 30.2725 242.302 30.2725C242.952 30.2725 243.585 30.1846 244.2 30C244.815 29.8242 245.308 29.6221 245.686 29.4023C246.063 29.1826 246.415 28.9277 246.749 28.6377C247.083 28.3477 247.294 28.1455 247.391 28.0312C247.487 27.917 247.558 27.8203 247.61 27.75L245.984 26.0361L245.844 26.2207C245.747 26.3525 245.598 26.502 245.387 26.6777C245.176 26.8535 244.93 27.0293 244.657 27.2051C244.376 27.3809 244.033 27.5303 243.611 27.6533C243.189 27.7764 242.759 27.8379 242.302 27.8379C241.124 27.8379 240.14 27.4424 239.349 26.6514C238.558 25.8604 238.162 24.876 238.162 23.6982C238.162 22.5205 238.558 21.5361 239.349 20.7451C240.14 19.9541 241.124 19.5586 242.302 19.5586C242.724 19.5586 243.146 19.6289 243.559 19.7607C243.963 19.8926 244.297 20.0332 244.552 20.1914C244.798 20.3496 245.035 20.5254 245.246 20.7275C245.457 20.9385 245.598 21.0791 245.659 21.167C245.721 21.2549 245.773 21.3164 245.809 21.3604L247.522 19.6465L247.32 19.3828C247.188 19.2158 246.978 19.0049 246.679 18.7588C246.38 18.5127 246.046 18.2666 245.659 18.0205C245.272 17.7744 244.789 17.5723 244.191 17.3965C243.594 17.2207 242.961 17.1328 242.302 17.1328ZM255.257 26.3086C255.257 26.7832 255.072 27.1699 254.703 27.4688C254.334 27.7764 253.833 27.9258 253.183 27.9258C252.62 27.9258 252.075 27.8027 251.565 27.5479C251.047 27.3018 250.713 27.0996 250.563 26.9502C250.414 26.8008 250.3 26.6777 250.221 26.5811L248.595 28.1982L248.797 28.418C248.911 28.5586 249.104 28.7344 249.377 28.9365C249.641 29.1475 249.957 29.3496 250.309 29.543C250.66 29.7451 251.117 29.9209 251.662 30.0615C252.207 30.2021 252.778 30.2725 253.358 30.2725C254.853 30.2725 256.021 29.9033 256.865 29.165C257.709 28.4268 258.131 27.4775 258.131 26.3086C258.131 25.4824 257.92 24.8057 257.489 24.2607C257.067 23.7246 256.549 23.3379 255.934 23.1006C255.318 22.8721 254.712 22.6611 254.105 22.4854C253.499 22.3096 252.98 22.0986 252.559 21.8438C252.137 21.5889 251.917 21.2461 251.917 20.8242C251.917 20.4551 252.075 20.1299 252.392 19.8662C252.708 19.6025 253.121 19.4707 253.631 19.4707C254.062 19.4707 254.475 19.5762 254.879 19.7695C255.283 19.9717 255.556 20.1299 255.679 20.2529C255.802 20.376 255.898 20.4727 255.969 20.5605L257.586 18.8467L257.428 18.6709C257.331 18.5479 257.164 18.3984 256.936 18.2314C256.707 18.0645 256.435 17.8975 256.127 17.7393C255.819 17.5811 255.424 17.4404 254.94 17.3174C254.466 17.1943 253.965 17.1416 253.446 17.1416C252.146 17.1416 251.082 17.502 250.265 18.2227C249.447 18.9434 249.034 19.8135 249.034 20.833C249.034 21.6592 249.254 22.3359 249.676 22.8809C250.106 23.417 250.625 23.8037 251.231 24.041C251.838 24.2695 252.444 24.4717 253.06 24.6475C253.675 24.8232 254.193 25.0342 254.615 25.2979C255.037 25.5527 255.257 25.8867 255.257 26.3086Z" fill="#4A4A4A"/>
<line x1="12" y1="49" x2="313" y2="49" stroke="#F6F6F6" stroke-width="2"/>
</svg>
