<svg width="414" height="59" viewBox="0 0 414 59" fill="none" xmlns="http://www.w3.org/2000/svg">
<path d="M0 15C0 6.71573 6.71573 0 15 0H399C407.284 0 414 6.71573 414 15V59H0V15Z" fill="white"/>
<path d="M32.8711 17.3965V30H35.5781V25.0518H40.7021V22.6172H35.5781V19.8311H42.1436V17.3965H32.8711ZM47.1797 27.5742V24.7793H52.3037V22.3535H47.1797V19.8311H53.7451V17.3965H44.4727V30H53.9297V27.5742H47.1797ZM59.1504 27.5742V24.7793H64.2744V22.3535H59.1504V19.8311H65.7158V17.3965H56.4434V30H65.9004V27.5742H59.1504ZM68.4141 17.3965V30H73.0986C74.9268 30 76.4648 29.3936 77.7129 28.1719C78.9521 26.959 79.5762 25.4648 79.5762 23.6982C79.5762 21.9404 78.9521 20.4463 77.7129 19.2246C76.4648 18.0117 74.9268 17.3965 73.0986 17.3965H68.4141ZM73.0986 19.8311C74.1709 19.8311 75.0762 20.209 75.7969 20.9561C76.5176 21.7119 76.8779 22.626 76.8779 23.707C76.8779 24.7881 76.5088 25.7021 75.7705 26.4492C75.0322 27.2051 74.1357 27.5742 73.0986 27.5742H71.1211V19.8311H73.0986ZM87.8027 30C89.0508 30 90.0703 29.6396 90.8789 28.9102C91.6787 28.1895 92.083 27.3193 92.083 26.3086C92.083 25.9043 92.0039 25.5264 91.8545 25.1748C91.7051 24.8232 91.5381 24.542 91.3623 24.3311C91.1777 24.1289 90.9668 23.9443 90.7295 23.7686C90.4834 23.5928 90.3164 23.4873 90.2285 23.4434C90.1406 23.3994 90.0615 23.3643 90.0088 23.3379L90.1582 23.25C90.2461 23.1973 90.3691 23.0918 90.5098 22.9512C90.6504 22.8105 90.7998 22.6348 90.9492 22.4326C91.0898 22.2393 91.2129 21.9844 91.3096 21.6855C91.3975 21.3867 91.4502 21.0615 91.4502 20.7275C91.4502 19.8486 91.0723 19.0664 90.3252 18.3984C89.5781 17.7305 88.6377 17.3965 87.4951 17.3965H82.0898V30H87.8027ZM84.7969 27.75V24.5068H87.6709C88.1631 24.5068 88.5674 24.665 88.8926 24.9814C89.2178 25.2979 89.3848 25.6758 89.3848 26.1328C89.3848 26.5898 89.2178 26.9766 88.8926 27.2842C88.5674 27.6006 88.1631 27.75 87.6709 27.75H84.7969ZM87.3105 19.6465C87.75 19.6465 88.1016 19.7695 88.3652 20.0156C88.6201 20.2617 88.752 20.5957 88.752 21C88.752 21.4131 88.6201 21.7383 88.3652 21.9844C88.1016 22.2305 87.75 22.3535 87.3105 22.3535H84.7969V19.6465H87.3105ZM100.723 24.6914H97.6553L99.1934 20.5518L100.723 24.6914ZM101.619 27.0293L102.7 30H105.583L100.626 17.3965H97.752L92.7949 30H95.6777L96.7588 27.0293H101.619ZM112.79 17.1328C110.865 17.1328 109.239 17.7744 107.921 19.0576C106.603 20.3408 105.943 21.8877 105.943 23.6982C105.943 25.5088 106.603 27.0645 107.921 28.3477C109.239 29.6309 110.865 30.2725 112.79 30.2725C113.44 30.2725 114.073 30.1846 114.688 30C115.304 29.8242 115.796 29.6221 116.174 29.4023C116.552 29.1826 116.903 28.9277 117.237 28.6377C117.571 28.3477 117.782 28.1455 117.879 28.0312C117.976 27.917 118.046 27.8203 118.099 27.75L116.473 26.0361L116.332 26.2207C116.235 26.3525 116.086 26.502 115.875 26.6777C115.664 26.8535 115.418 27.0293 115.146 27.2051C114.864 27.3809 114.521 27.5303 114.1 27.6533C113.678 27.7764 113.247 27.8379 112.79 27.8379C111.612 27.8379 110.628 27.4424 109.837 26.6514C109.046 25.8604 108.65 24.876 108.65 23.6982C108.65 22.5205 109.046 21.5361 109.837 20.7451C110.628 19.9541 111.612 19.5586 112.79 19.5586C113.212 19.5586 113.634 19.6289 114.047 19.7607C114.451 19.8926 114.785 20.0332 115.04 20.1914C115.286 20.3496 115.523 20.5254 115.734 20.7275C115.945 20.9385 116.086 21.0791 116.147 21.167C116.209 21.2549 116.262 21.3164 116.297 21.3604L118.011 19.6465L117.809 19.3828C117.677 19.2158 117.466 19.0049 117.167 18.7588C116.868 18.5127 116.534 18.2666 116.147 18.0205C115.761 17.7744 115.277 17.5723 114.68 17.3965C114.082 17.2207 113.449 17.1328 112.79 17.1328ZM122.959 17.3965H120.252V30H122.959V26.3965L124.576 24.6035L128.268 30H131.414L126.378 22.6172L131.054 17.3965H127.907L122.959 22.8896V17.3965ZM136.723 17.3965V30H139.43V25.8604H142.031C143.332 25.8604 144.404 25.4561 145.257 24.6475C146.101 23.8389 146.531 22.8281 146.531 21.6328C146.531 20.4375 146.101 19.4268 145.248 18.6182C144.396 17.8096 143.323 17.4053 142.031 17.4053L136.723 17.3965ZM141.943 19.8398C142.479 19.8398 142.928 20.0068 143.288 20.3584C143.648 20.71 143.833 21.1318 143.833 21.6416C143.833 22.1426 143.648 22.5645 143.288 22.916C142.928 23.2588 142.479 23.4346 141.943 23.4346H139.43V19.8398H141.943ZM154.354 24.6914H151.286L152.824 20.5518L154.354 24.6914ZM155.25 27.0293L156.331 30H159.214L154.257 17.3965H151.383L146.426 30H149.309L150.39 27.0293H155.25ZM161.016 30H163.723V25.5879H166.061L168.486 30H171.369L168.671 25.2275L168.899 25.1045C169.058 25.0342 169.242 24.9023 169.471 24.709C169.69 24.5156 169.91 24.2871 170.121 24.0146C170.332 23.751 170.517 23.3906 170.675 22.9512C170.833 22.5117 170.912 22.0459 170.912 21.5361C170.912 20.376 170.508 19.4004 169.69 18.6006C168.873 17.8008 167.836 17.3965 166.588 17.3965H161.007L161.016 30ZM168.214 21.5361C168.214 21.9932 168.056 22.3799 167.73 22.6963C167.405 23.0127 166.992 23.1621 166.5 23.1621H163.714V19.8311H166.5C166.992 19.8311 167.405 19.998 167.73 20.3145C168.056 20.6396 168.214 21.0439 168.214 21.5361ZM172.169 17.3965V19.8311H175.772V30H178.471V19.8311H182.065V17.3965H172.169ZM184.043 30H186.75V17.3965H184.043V30ZM196.11 17.1328C194.186 17.1328 192.56 17.7744 191.241 19.0576C189.923 20.3408 189.264 21.8877 189.264 23.6982C189.264 25.5088 189.923 27.0645 191.241 28.3477C192.56 29.6309 194.186 30.2725 196.11 30.2725C196.761 30.2725 197.394 30.1846 198.009 30C198.624 29.8242 199.116 29.6221 199.494 29.4023C199.872 29.1826 200.224 28.9277 200.558 28.6377C200.892 28.3477 201.103 28.1455 201.199 28.0312C201.296 27.917 201.366 27.8203 201.419 27.75L199.793 26.0361L199.652 26.2207C199.556 26.3525 199.406 26.502 199.195 26.6777C198.984 26.8535 198.738 27.0293 198.466 27.2051C198.185 27.3809 197.842 27.5303 197.42 27.6533C196.998 27.7764 196.567 27.8379 196.11 27.8379C194.933 27.8379 193.948 27.4424 193.157 26.6514C192.366 25.8604 191.971 24.876 191.971 23.6982C191.971 22.5205 192.366 21.5361 193.157 20.7451C193.948 19.9541 194.933 19.5586 196.11 19.5586C196.532 19.5586 196.954 19.6289 197.367 19.7607C197.771 19.8926 198.105 20.0332 198.36 20.1914C198.606 20.3496 198.844 20.5254 199.055 20.7275C199.266 20.9385 199.406 21.0791 199.468 21.167C199.529 21.2549 199.582 21.3164 199.617 21.3604L201.331 19.6465L201.129 19.3828C200.997 19.2158 200.786 19.0049 200.487 18.7588C200.188 18.5127 199.854 18.2666 199.468 18.0205C199.081 17.7744 198.598 17.5723 198 17.3965C197.402 17.2207 196.77 17.1328 196.11 17.1328ZM203.572 30H206.279V17.3965H203.572V30ZM209.514 17.3965V30H212.221V25.8604H214.822C216.123 25.8604 217.195 25.4561 218.048 24.6475C218.892 23.8389 219.322 22.8281 219.322 21.6328C219.322 20.4375 218.892 19.4268 218.039 18.6182C217.187 17.8096 216.114 17.4053 214.822 17.4053L209.514 17.3965ZM214.734 19.8398C215.271 19.8398 215.719 20.0068 216.079 20.3584C216.439 20.71 216.624 21.1318 216.624 21.6416C216.624 22.1426 216.439 22.5645 216.079 22.916C215.719 23.2588 215.271 23.4346 214.734 23.4346H212.221V19.8398H214.734ZM227.145 24.6914H224.077L225.615 20.5518L227.145 24.6914ZM228.041 27.0293L229.122 30H232.005L227.048 17.3965H224.174L219.217 30H222.1L223.181 27.0293H228.041ZM231.46 17.3965V19.8311H235.063V30H237.762V19.8311H241.356V17.3965H231.46ZM243.334 30H246.041V17.3965H243.334V30ZM251.35 23.707C251.35 22.5469 251.736 21.5625 252.527 20.7627C253.31 19.9629 254.268 19.5586 255.393 19.5586C256.518 19.5586 257.476 19.9629 258.258 20.7627C259.049 21.5625 259.436 22.5469 259.436 23.707C259.436 24.8672 259.049 25.8516 258.258 26.6426C257.476 27.4424 256.518 27.8379 255.393 27.8379C254.268 27.8379 253.31 27.4424 252.527 26.6426C251.736 25.8516 251.35 24.8672 251.35 23.707ZM248.555 23.6982C248.555 25.5088 249.214 27.0645 250.532 28.3477C251.851 29.6309 253.477 30.2725 255.393 30.2725C257.309 30.2725 258.935 29.6309 260.253 28.3477C261.571 27.0645 262.23 25.5088 262.23 23.6982C262.23 21.8877 261.571 20.3408 260.253 19.0576C258.935 17.7744 257.309 17.1328 255.393 17.1328C253.477 17.1328 251.851 17.7744 250.532 19.0576C249.214 20.3408 248.555 21.8877 248.555 23.6982ZM273.313 17.3965V25.4121L267.108 17.3965H264.762V30H267.469V21.9932L273.674 30H276.012V17.3965H273.313ZM285.012 23.707C285.012 22.5469 285.398 21.5625 286.189 20.7627C286.972 19.9629 287.93 19.5586 289.055 19.5586C290.18 19.5586 291.138 19.9629 291.92 20.7627C292.711 21.5625 293.098 22.5469 293.098 23.707C293.098 24.8672 292.711 25.8516 291.92 26.6426C291.138 27.4424 290.18 27.8379 289.055 27.8379C287.93 27.8379 286.972 27.4424 286.189 26.6426C285.398 25.8516 285.012 24.8672 285.012 23.707ZM282.217 23.6982C282.217 25.5088 282.876 27.0645 284.194 28.3477C285.513 29.6309 287.139 30.2725 289.055 30.2725C290.971 30.2725 292.597 29.6309 293.915 28.3477C295.233 27.0645 295.893 25.5088 295.893 23.6982C295.893 21.8877 295.233 20.3408 293.915 19.0576C292.597 17.7744 290.971 17.1328 289.055 17.1328C287.139 17.1328 285.513 17.7744 284.194 19.0576C282.876 20.3408 282.217 21.8877 282.217 23.6982ZM301.122 30H304.005L308.689 17.3965H305.807L302.563 26.7568L299.329 17.3965H296.446L301.122 30ZM313.365 27.5742V24.7793H318.489V22.3535H313.365V19.8311H319.931V17.3965H310.658V30H320.115V27.5742H313.365ZM322.629 30H325.336V25.5879H327.674L330.1 30H332.982L330.284 25.2275L330.513 25.1045C330.671 25.0342 330.855 24.9023 331.084 24.709C331.304 24.5156 331.523 24.2871 331.734 24.0146C331.945 23.751 332.13 23.3906 332.288 22.9512C332.446 22.5117 332.525 22.0459 332.525 21.5361C332.525 20.376 332.121 19.4004 331.304 18.6006C330.486 17.8008 329.449 17.3965 328.201 17.3965H322.62L322.629 30ZM329.827 21.5361C329.827 21.9932 329.669 22.3799 329.344 22.6963C329.019 23.0127 328.605 23.1621 328.113 23.1621H325.327V19.8311H328.113C328.605 19.8311 329.019 19.998 329.344 20.3145C329.669 20.6396 329.827 21.0439 329.827 21.5361ZM337.843 17.3965V19.8311H341.446V30H344.145V19.8311H347.739V17.3965H337.843ZM349.717 30H352.424V17.3965H349.717V30ZM362.408 22.8896L358.093 17.3965H355.658V30H358.365V21.6328L362.408 26.7568L366.46 21.5977V30H369.158V17.3965H366.768L362.408 22.8896ZM375.1 27.5742V24.7793H380.224V22.3535H375.1V19.8311H381.665V17.3965H372.393V30H381.85V27.5742H375.1Z" fill="#4A4A4A"/>
<line x1="12" y1="45" x2="397" y2="45" stroke="#F6F6F6" stroke-width="2"/>
</svg>
