<svg width="264" height="59" viewBox="0 0 264 59" fill="none" xmlns="http://www.w3.org/2000/svg">
<path d="M0 15C0 6.71573 6.71573 0 15 0H249C257.284 0 264 6.71573 264 15V59H0V15Z" fill="white"/>
<path d="M52.3369 24.6914H49.2695L50.8076 20.5518L52.3369 24.6914ZM53.2334 27.0293L54.3145 30H57.1973L52.2402 17.3965H49.3662L44.4092 30H47.292L48.373 27.0293H53.2334ZM64.7119 30C65.96 30 66.9795 29.6396 67.7881 28.9102C68.5879 28.1895 68.9922 27.3193 68.9922 26.3086C68.9922 25.9043 68.9131 25.5264 68.7637 25.1748C68.6143 24.8232 68.4473 24.542 68.2715 24.3311C68.0869 24.1289 67.876 23.9443 67.6387 23.7686C67.3926 23.5928 67.2256 23.4873 67.1377 23.4434C67.0498 23.3994 66.9707 23.3643 66.918 23.3379L67.0674 23.25C67.1553 23.1973 67.2783 23.0918 67.4189 22.9512C67.5596 22.8105 67.709 22.6348 67.8584 22.4326C67.999 22.2393 68.1221 21.9844 68.2188 21.6855C68.3066 21.3867 68.3594 21.0615 68.3594 20.7275C68.3594 19.8486 67.9814 19.0664 67.2344 18.3984C66.4873 17.7305 65.5469 17.3965 64.4043 17.3965H58.999V30H64.7119ZM61.7061 27.75V24.5068H64.5801C65.0723 24.5068 65.4766 24.665 65.8018 24.9814C66.127 25.2979 66.2939 25.6758 66.2939 26.1328C66.2939 26.5898 66.127 26.9766 65.8018 27.2842C65.4766 27.6006 65.0723 27.75 64.5801 27.75H61.7061ZM64.2197 19.6465C64.6592 19.6465 65.0107 19.7695 65.2744 20.0156C65.5293 20.2617 65.6611 20.5957 65.6611 21C65.6611 21.4131 65.5293 21.7383 65.2744 21.9844C65.0107 22.2305 64.6592 22.3535 64.2197 22.3535H61.7061V19.6465H64.2197ZM73.5889 23.707C73.5889 22.5469 73.9756 21.5625 74.7666 20.7627C75.5488 19.9629 76.5068 19.5586 77.6318 19.5586C78.7568 19.5586 79.7148 19.9629 80.4971 20.7627C81.2881 21.5625 81.6748 22.5469 81.6748 23.707C81.6748 24.8672 81.2881 25.8516 80.4971 26.6426C79.7148 27.4424 78.7568 27.8379 77.6318 27.8379C76.5068 27.8379 75.5488 27.4424 74.7666 26.6426C73.9756 25.8516 73.5889 24.8672 73.5889 23.707ZM70.7939 23.6982C70.7939 25.5088 71.4531 27.0645 72.7715 28.3477C74.0898 29.6309 75.7158 30.2725 77.6318 30.2725C79.5479 30.2725 81.1738 29.6309 82.4922 28.3477C83.8105 27.0645 84.4697 25.5088 84.4697 23.6982C84.4697 21.8877 83.8105 20.3408 82.4922 19.0576C81.1738 17.7744 79.5479 17.1328 77.6318 17.1328C75.7158 17.1328 74.0898 17.7744 72.7715 19.0576C71.4531 20.3408 70.7939 21.8877 70.7939 23.6982ZM92.4062 27.8379C91.6328 27.8379 90.9736 27.5566 90.4287 26.9854C89.8838 26.4141 89.6113 25.7109 89.6113 24.8672V17.3965H86.9131V24.8672C86.9131 26.4053 87.4316 27.6885 88.4775 28.7256C89.5146 29.7627 90.8242 30.2812 92.3975 30.2812C93.9707 30.2812 95.2803 29.7627 96.3262 28.7256C97.3633 27.6885 97.8906 26.4053 97.8906 24.8672V17.3965H95.1924V24.8672C95.1924 25.7109 94.9199 26.4229 94.375 26.9854C93.8301 27.5566 93.1709 27.8379 92.4062 27.8379ZM99.7891 17.3965V19.8311H103.393V30H106.091V19.8311H109.686V17.3965H99.7891ZM116.796 17.3965H113.913L118.413 25.5V30H121.12V25.5L125.62 17.3965H122.737L119.767 22.8018L116.796 17.3965ZM128.767 23.707C128.767 22.5469 129.153 21.5625 129.944 20.7627C130.727 19.9629 131.685 19.5586 132.81 19.5586C133.935 19.5586 134.893 19.9629 135.675 20.7627C136.466 21.5625 136.853 22.5469 136.853 23.707C136.853 24.8672 136.466 25.8516 135.675 26.6426C134.893 27.4424 133.935 27.8379 132.81 27.8379C131.685 27.8379 130.727 27.4424 129.944 26.6426C129.153 25.8516 128.767 24.8672 128.767 23.707ZM125.972 23.6982C125.972 25.5088 126.631 27.0645 127.949 28.3477C129.268 29.6309 130.894 30.2725 132.81 30.2725C134.726 30.2725 136.352 29.6309 137.67 28.3477C138.988 27.0645 139.647 25.5088 139.647 23.6982C139.647 21.8877 138.988 20.3408 137.67 19.0576C136.352 17.7744 134.726 17.1328 132.81 17.1328C130.894 17.1328 129.268 17.7744 127.949 19.0576C126.631 20.3408 125.972 21.8877 125.972 23.6982ZM147.584 27.8379C146.811 27.8379 146.151 27.5566 145.606 26.9854C145.062 26.4141 144.789 25.7109 144.789 24.8672V17.3965H142.091V24.8672C142.091 26.4053 142.609 27.6885 143.655 28.7256C144.692 29.7627 146.002 30.2812 147.575 30.2812C149.148 30.2812 150.458 29.7627 151.504 28.7256C152.541 27.6885 153.068 26.4053 153.068 24.8672V17.3965H150.37V24.8672C150.37 25.7109 150.098 26.4229 149.553 26.9854C149.008 27.5566 148.349 27.8379 147.584 27.8379ZM156.224 30H158.931V25.5879H161.269L163.694 30H166.577L163.879 25.2275L164.107 25.1045C164.266 25.0342 164.45 24.9023 164.679 24.709C164.898 24.5156 165.118 24.2871 165.329 24.0146C165.54 23.751 165.725 23.3906 165.883 22.9512C166.041 22.5117 166.12 22.0459 166.12 21.5361C166.12 20.376 165.716 19.4004 164.898 18.6006C164.081 17.8008 163.044 17.3965 161.796 17.3965H156.215L156.224 30ZM163.422 21.5361C163.422 21.9932 163.264 22.3799 162.938 22.6963C162.613 23.0127 162.2 23.1621 161.708 23.1621H158.922V19.8311H161.708C162.2 19.8311 162.613 19.998 162.938 20.3145C163.264 20.6396 163.422 21.0439 163.422 21.5361ZM172.694 17.3965V30H177.379C179.207 30 180.745 29.3936 181.993 28.1719C183.232 26.959 183.856 25.4648 183.856 23.6982C183.856 21.9404 183.232 20.4463 181.993 19.2246C180.745 18.0117 179.207 17.3965 177.379 17.3965H172.694ZM177.379 19.8311C178.451 19.8311 179.356 20.209 180.077 20.9561C180.798 21.7119 181.158 22.626 181.158 23.707C181.158 24.7881 180.789 25.7021 180.051 26.4492C179.312 27.2051 178.416 27.5742 177.379 27.5742H175.401V19.8311H177.379ZM192.136 24.6914H189.068L190.606 20.5518L192.136 24.6914ZM193.032 27.0293L194.113 30H196.996L192.039 17.3965H189.165L184.208 30H187.091L188.172 27.0293H193.032ZM196.451 17.3965V19.8311H200.055V30H202.753V19.8311H206.348V17.3965H196.451ZM213.722 24.6914H210.654L212.192 20.5518L213.722 24.6914ZM214.618 27.0293L215.699 30H218.582L213.625 17.3965H210.751L205.794 30H208.677L209.758 27.0293H214.618Z" fill="#4A4A4A"/>
<line x1="12" y1="45" x2="250" y2="45" stroke="#F6F6F6" stroke-width="2"/>
</svg>
