<svg width="264" height="59" viewBox="0 0 264 59" fill="none" xmlns="http://www.w3.org/2000/svg">
    <path d="M0 15C0 6.71573 6.71573 0 15 0H249C257.284 0 264 6.71573 264 15V59H0V15Z" fill="white"/>
    <path d="M46.3438 24.6914H43.2764L44.8145 20.5518L46.3438 24.6914ZM47.2402 27.0293L48.3213 30H51.2041L46.2471 17.3965H43.373L38.416 30H41.2988L42.3799 27.0293H47.2402ZM58.7188 30C59.9668 30 60.9863 29.6396 61.7949 28.9102C62.5947 28.1895 62.999 27.3193 62.999 26.3086C62.999 25.9043 62.9199 25.5264 62.7705 25.1748C62.6211 24.8232 62.4541 24.542 62.2783 24.3311C62.0938 24.1289 61.8828 23.9443 61.6455 23.7686C61.3994 23.5928 61.2324 23.4873 61.1445 23.4434C61.0566 23.3994 60.9775 23.3643 60.9248 23.3379L61.0742 23.25C61.1621 23.1973 61.2852 23.0918 61.4258 22.9512C61.5664 22.8105 61.7158 22.6348 61.8652 22.4326C62.0059 22.2393 62.1289 21.9844 62.2256 21.6855C62.3135 21.3867 62.3662 21.0615 62.3662 20.7275C62.3662 19.8486 61.9883 19.0664 61.2412 18.3984C60.4941 17.7305 59.5537 17.3965 58.4111 17.3965H53.0059V30H58.7188ZM55.7129 27.75V24.5068H58.5869C59.0791 24.5068 59.4834 24.665 59.8086 24.9814C60.1338 25.2979 60.3008 25.6758 60.3008 26.1328C60.3008 26.5898 60.1338 26.9766 59.8086 27.2842C59.4834 27.6006 59.0791 27.75 58.5869 27.75H55.7129ZM58.2266 19.6465C58.666 19.6465 59.0176 19.7695 59.2812 20.0156C59.5361 20.2617 59.668 20.5957 59.668 21C59.668 21.4131 59.5361 21.7383 59.2812 21.9844C59.0176 22.2305 58.666 22.3535 58.2266 22.3535H55.7129V19.6465H58.2266ZM67.5957 23.707C67.5957 22.5469 67.9824 21.5625 68.7734 20.7627C69.5557 19.9629 70.5137 19.5586 71.6387 19.5586C72.7637 19.5586 73.7217 19.9629 74.5039 20.7627C75.2949 21.5625 75.6816 22.5469 75.6816 23.707C75.6816 24.8672 75.2949 25.8516 74.5039 26.6426C73.7217 27.4424 72.7637 27.8379 71.6387 27.8379C70.5137 27.8379 69.5557 27.4424 68.7734 26.6426C67.9824 25.8516 67.5957 24.8672 67.5957 23.707ZM64.8008 23.6982C64.8008 25.5088 65.46 27.0645 66.7783 28.3477C68.0967 29.6309 69.7227 30.2725 71.6387 30.2725C73.5547 30.2725 75.1807 29.6309 76.499 28.3477C77.8174 27.0645 78.4766 25.5088 78.4766 23.6982C78.4766 21.8877 77.8174 20.3408 76.499 19.0576C75.1807 17.7744 73.5547 17.1328 71.6387 17.1328C69.7227 17.1328 68.0967 17.7744 66.7783 19.0576C65.46 20.3408 64.8008 21.8877 64.8008 23.6982ZM86.4131 27.8379C85.6396 27.8379 84.9805 27.5566 84.4355 26.9854C83.8906 26.4141 83.6182 25.7109 83.6182 24.8672V17.3965H80.9199V24.8672C80.9199 26.4053 81.4385 27.6885 82.4844 28.7256C83.5215 29.7627 84.8311 30.2812 86.4043 30.2812C87.9775 30.2812 89.2871 29.7627 90.333 28.7256C91.3701 27.6885 91.8975 26.4053 91.8975 24.8672V17.3965H89.1992V24.8672C89.1992 25.7109 88.9268 26.4229 88.3818 26.9854C87.8369 27.5566 87.1777 27.8379 86.4131 27.8379ZM93.7959 17.3965V19.8311H97.3994V30H100.098V19.8311H103.692V17.3965H93.7959ZM110.803 17.3965H107.92L112.42 25.5V30H115.127V25.5L119.627 17.3965H116.744L113.773 22.8018L110.803 17.3965ZM122.773 23.707C122.773 22.5469 123.16 21.5625 123.951 20.7627C124.733 19.9629 125.691 19.5586 126.816 19.5586C127.941 19.5586 128.899 19.9629 129.682 20.7627C130.473 21.5625 130.859 22.5469 130.859 23.707C130.859 24.8672 130.473 25.8516 129.682 26.6426C128.899 27.4424 127.941 27.8379 126.816 27.8379C125.691 27.8379 124.733 27.4424 123.951 26.6426C123.16 25.8516 122.773 24.8672 122.773 23.707ZM119.979 23.6982C119.979 25.5088 120.638 27.0645 121.956 28.3477C123.274 29.6309 124.9 30.2725 126.816 30.2725C128.732 30.2725 130.358 29.6309 131.677 28.3477C132.995 27.0645 133.654 25.5088 133.654 23.6982C133.654 21.8877 132.995 20.3408 131.677 19.0576C130.358 17.7744 128.732 17.1328 126.816 17.1328C124.9 17.1328 123.274 17.7744 121.956 19.0576C120.638 20.3408 119.979 21.8877 119.979 23.6982ZM141.591 27.8379C140.817 27.8379 140.158 27.5566 139.613 26.9854C139.068 26.4141 138.796 25.7109 138.796 24.8672V17.3965H136.098V24.8672C136.098 26.4053 136.616 27.6885 137.662 28.7256C138.699 29.7627 140.009 30.2812 141.582 30.2812C143.155 30.2812 144.465 29.7627 145.511 28.7256C146.548 27.6885 147.075 26.4053 147.075 24.8672V17.3965H144.377V24.8672C144.377 25.7109 144.104 26.4229 143.56 26.9854C143.015 27.5566 142.355 27.8379 141.591 27.8379ZM150.23 30H152.938V25.5879H155.275L157.701 30H160.584L157.886 25.2275L158.114 25.1045C158.272 25.0342 158.457 24.9023 158.686 24.709C158.905 24.5156 159.125 24.2871 159.336 24.0146C159.547 23.751 159.731 23.3906 159.89 22.9512C160.048 22.5117 160.127 22.0459 160.127 21.5361C160.127 20.376 159.723 19.4004 158.905 18.6006C158.088 17.8008 157.051 17.3965 155.803 17.3965H150.222L150.23 30ZM157.429 21.5361C157.429 21.9932 157.271 22.3799 156.945 22.6963C156.62 23.0127 156.207 23.1621 155.715 23.1621H152.929V19.8311H155.715C156.207 19.8311 156.62 19.998 156.945 20.3145C157.271 20.6396 157.429 21.0439 157.429 21.5361ZM166.701 30H169.408V17.3965H166.701V30ZM181.194 17.3965V25.4121L174.989 17.3965H172.643V30H175.35V21.9932L181.555 30H183.893V17.3965H181.194ZM187.127 17.3965V30H191.812C193.64 30 195.178 29.3936 196.426 28.1719C197.665 26.959 198.289 25.4648 198.289 23.6982C198.289 21.9404 197.665 20.4463 196.426 19.2246C195.178 18.0117 193.64 17.3965 191.812 17.3965H187.127ZM191.812 19.8311C192.884 19.8311 193.789 20.209 194.51 20.9561C195.23 21.7119 195.591 22.626 195.591 23.707C195.591 24.7881 195.222 25.7021 194.483 26.4492C193.745 27.2051 192.849 27.5742 191.812 27.5742H189.834V19.8311H191.812ZM203.51 27.5742V24.7793H208.634V22.3535H203.51V19.8311H210.075V17.3965H200.803V30H210.26V27.5742H203.51ZM217.458 25.4121L220.517 30H223.575L219.163 23.4258L223.215 17.3965H220.156L217.458 21.4482L214.76 17.3965H211.692L215.744 23.4258L211.332 30H214.399L217.458 25.4121Z"
          fill="#4A4A4A"/>
    <line x1="12" y1="45" x2="250" y2="45" stroke="#F6F6F6" stroke-width="2"/>
</svg>
