<svg width="327" height="59" viewBox="0 0 327 59" fill="none" xmlns="http://www.w3.org/2000/svg">
<path d="M0 15C0 6.71573 6.71573 0 15 0H312C320.284 0 327 6.71573 327 15V59H0V15Z" fill="white"/>
<path d="M32.7568 30H35.4639V17.3965H32.7568V30ZM47.25 17.3965V25.4121L41.0449 17.3965H38.6982V30H41.4053V21.9932L47.6104 30H49.9482V17.3965H47.25ZM53.1826 17.3965V30H57.8672C59.6953 30 61.2334 29.3936 62.4814 28.1719C63.7207 26.959 64.3447 25.4648 64.3447 23.6982C64.3447 21.9404 63.7207 20.4463 62.4814 19.2246C61.2334 18.0117 59.6953 17.3965 57.8672 17.3965H53.1826ZM57.8672 19.8311C58.9395 19.8311 59.8447 20.209 60.5654 20.9561C61.2861 21.7119 61.6465 22.626 61.6465 23.707C61.6465 24.7881 61.2773 25.7021 60.5391 26.4492C59.8008 27.2051 58.9043 27.5742 57.8672 27.5742H55.8896V19.8311H57.8672ZM66.8584 30H69.5654V17.3965H66.8584V30ZM76.2188 30H79.1016L83.7861 17.3965H80.9033L77.6602 26.7568L74.4258 17.3965H71.543L76.2188 30ZM85.7549 30H88.4619V17.3965H85.7549V30ZM91.6963 17.3965V30H96.3809C98.209 30 99.7471 29.3936 100.995 28.1719C102.234 26.959 102.858 25.4648 102.858 23.6982C102.858 21.9404 102.234 20.4463 100.995 19.2246C99.7471 18.0117 98.209 17.3965 96.3809 17.3965H91.6963ZM96.3809 19.8311C97.4531 19.8311 98.3584 20.209 99.0791 20.9561C99.7998 21.7119 100.16 22.626 100.16 23.707C100.16 24.7881 99.791 25.7021 99.0527 26.4492C98.3145 27.2051 97.418 27.5742 96.3809 27.5742H94.4033V19.8311H96.3809ZM110.777 27.8379C110.004 27.8379 109.345 27.5566 108.8 26.9854C108.255 26.4141 107.982 25.7109 107.982 24.8672V17.3965H105.284V24.8672C105.284 26.4053 105.803 27.6885 106.849 28.7256C107.886 29.7627 109.195 30.2812 110.769 30.2812C112.342 30.2812 113.651 29.7627 114.697 28.7256C115.734 27.6885 116.262 26.4053 116.262 24.8672V17.3965H113.563V24.8672C113.563 25.7109 113.291 26.4229 112.746 26.9854C112.201 27.5566 111.542 27.8379 110.777 27.8379ZM125.183 24.6914H122.115L123.653 20.5518L125.183 24.6914ZM126.079 27.0293L127.16 30H130.043L125.086 17.3965H122.212L117.255 30H120.138L121.219 27.0293H126.079ZM140.396 30V27.5742H134.552V17.3965H131.845V30H140.396ZM151.646 26.3086C151.646 26.7832 151.462 27.1699 151.093 27.4688C150.724 27.7764 150.223 27.9258 149.572 27.9258C149.01 27.9258 148.465 27.8027 147.955 27.5479C147.437 27.3018 147.103 27.0996 146.953 26.9502C146.804 26.8008 146.689 26.6777 146.61 26.5811L144.984 28.1982L145.187 28.418C145.301 28.5586 145.494 28.7344 145.767 28.9365C146.03 29.1475 146.347 29.3496 146.698 29.543C147.05 29.7451 147.507 29.9209 148.052 30.0615C148.597 30.2021 149.168 30.2725 149.748 30.2725C151.242 30.2725 152.411 29.9033 153.255 29.165C154.099 28.4268 154.521 27.4775 154.521 26.3086C154.521 25.4824 154.31 24.8057 153.879 24.2607C153.457 23.7246 152.938 23.3379 152.323 23.1006C151.708 22.8721 151.102 22.6611 150.495 22.4854C149.889 22.3096 149.37 22.0986 148.948 21.8438C148.526 21.5889 148.307 21.2461 148.307 20.8242C148.307 20.4551 148.465 20.1299 148.781 19.8662C149.098 19.6025 149.511 19.4707 150.021 19.4707C150.451 19.4707 150.864 19.5762 151.269 19.7695C151.673 19.9717 151.945 20.1299 152.068 20.2529C152.191 20.376 152.288 20.4727 152.358 20.5605L153.976 18.8467L153.817 18.6709C153.721 18.5479 153.554 18.3984 153.325 18.2314C153.097 18.0645 152.824 17.8975 152.517 17.7393C152.209 17.5811 151.813 17.4404 151.33 17.3174C150.855 17.1943 150.354 17.1416 149.836 17.1416C148.535 17.1416 147.472 17.502 146.654 18.2227C145.837 18.9434 145.424 19.8135 145.424 20.833C145.424 21.6592 145.644 22.3359 146.065 22.8809C146.496 23.417 147.015 23.8037 147.621 24.041C148.228 24.2695 148.834 24.4717 149.449 24.6475C150.064 24.8232 150.583 25.0342 151.005 25.2979C151.427 25.5527 151.646 25.8867 151.646 26.3086ZM159.653 27.5742V24.7793H164.777V22.3535H159.653V19.8311H166.219V17.3965H156.946V30H166.403V27.5742H159.653ZM175.403 24.6914H172.336L173.874 20.5518L175.403 24.6914ZM176.3 27.0293L177.381 30H180.264L175.307 17.3965H172.433L167.476 30H170.358L171.439 27.0293H176.3ZM182.065 30H184.772V25.5879H187.11L189.536 30H192.419L189.721 25.2275L189.949 25.1045C190.107 25.0342 190.292 24.9023 190.521 24.709C190.74 24.5156 190.96 24.2871 191.171 24.0146C191.382 23.751 191.566 23.3906 191.725 22.9512C191.883 22.5117 191.962 22.0459 191.962 21.5361C191.962 20.376 191.558 19.4004 190.74 18.6006C189.923 17.8008 188.886 17.3965 187.638 17.3965H182.057L182.065 30ZM189.264 21.5361C189.264 21.9932 189.105 22.3799 188.78 22.6963C188.455 23.0127 188.042 23.1621 187.55 23.1621H184.764V19.8311H187.55C188.042 19.8311 188.455 19.998 188.78 20.3145C189.105 20.6396 189.264 21.0439 189.264 21.5361ZM200.971 17.1328C199.046 17.1328 197.42 17.7744 196.102 19.0576C194.783 20.3408 194.124 21.8877 194.124 23.6982C194.124 25.5088 194.783 27.0645 196.102 28.3477C197.42 29.6309 199.046 30.2725 200.971 30.2725C201.621 30.2725 202.254 30.1846 202.869 30C203.484 29.8242 203.977 29.6221 204.354 29.4023C204.732 29.1826 205.084 28.9277 205.418 28.6377C205.752 28.3477 205.963 28.1455 206.06 28.0312C206.156 27.917 206.227 27.8203 206.279 27.75L204.653 26.0361L204.513 26.2207C204.416 26.3525 204.267 26.502 204.056 26.6777C203.845 26.8535 203.599 27.0293 203.326 27.2051C203.045 27.3809 202.702 27.5303 202.28 27.6533C201.858 27.7764 201.428 27.8379 200.971 27.8379C199.793 27.8379 198.809 27.4424 198.018 26.6514C197.227 25.8604 196.831 24.876 196.831 23.6982C196.831 22.5205 197.227 21.5361 198.018 20.7451C198.809 19.9541 199.793 19.5586 200.971 19.5586C201.393 19.5586 201.814 19.6289 202.228 19.7607C202.632 19.8926 202.966 20.0332 203.221 20.1914C203.467 20.3496 203.704 20.5254 203.915 20.7275C204.126 20.9385 204.267 21.0791 204.328 21.167C204.39 21.2549 204.442 21.3164 204.478 21.3604L206.191 19.6465L205.989 19.3828C205.857 19.2158 205.646 19.0049 205.348 18.7588C205.049 18.5127 204.715 18.2666 204.328 18.0205C203.941 17.7744 203.458 17.5723 202.86 17.3965C202.263 17.2207 201.63 17.1328 200.971 17.1328ZM219.234 17.3965H216.536V22.4414H211.14V17.3965H208.433V30H211.14V24.8672H216.536V30H219.234V17.3965Z" fill="#4A4A4A"/>
<line x1="12" y1="45" x2="313" y2="45" stroke="#F6F6F6" stroke-width="2"/>
</svg>
