<svg width="257" height="59" viewBox="0 0 257 59" fill="none" xmlns="http://www.w3.org/2000/svg">
<path d="M0 15C0 6.71573 6.71573 0 15 0H242C250.284 0 257 6.71573 257 15V59H0V15Z" fill="white"/>
<path d="M32.6172 30H35.3242V25.5879H37.6621L40.0879 30H42.9707L40.2725 25.2275L40.501 25.1045C40.6592 25.0342 40.8438 24.9023 41.0723 24.709C41.292 24.5156 41.5117 24.2871 41.7227 24.0146C41.9336 23.751 42.1182 23.3906 42.2764 22.9512C42.4346 22.5117 42.5137 22.0459 42.5137 21.5361C42.5137 20.376 42.1094 19.4004 41.292 18.6006C40.4746 17.8008 39.4375 17.3965 38.1895 17.3965H32.6084L32.6172 30ZM39.8154 21.5361C39.8154 21.9932 39.6572 22.3799 39.332 22.6963C39.0068 23.0127 38.5938 23.1621 38.1016 23.1621H35.3154V19.8311H38.1016C38.5938 19.8311 39.0068 19.998 39.332 20.3145C39.6572 20.6396 39.8154 21.0439 39.8154 21.5361ZM51.8828 24.6914H48.8154L50.3535 20.5518L51.8828 24.6914ZM52.7793 27.0293L53.8604 30H56.7432L51.7861 17.3965H48.9121L43.9551 30H46.8379L47.9189 27.0293H52.7793ZM56.1982 17.3965V19.8311H59.8018V30H62.5V19.8311H66.0947V17.3965H56.1982ZM68.0723 30H70.7793V17.3965H68.0723V30ZM82.5654 17.3965V25.4121L76.3604 17.3965H74.0137V30H76.7207V21.9932L82.9258 30H85.2637V17.3965H82.5654ZM95.1602 23.1621V25.1396H97.4102V26.8535L97.1377 27.082C96.9443 27.2578 96.6191 27.4248 96.1621 27.5918C95.6963 27.7588 95.1865 27.8379 94.624 27.8379C93.4463 27.8379 92.4619 27.4424 91.6709 26.6514C90.8799 25.8604 90.4844 24.876 90.4844 23.6982C90.4844 22.5205 90.8799 21.5361 91.6709 20.7451C92.4619 19.9541 93.4463 19.5586 94.624 19.5586C95.0459 19.5586 95.4678 19.6289 95.8809 19.7607C96.2852 19.8926 96.6191 20.0332 96.874 20.1914C97.1201 20.3496 97.3574 20.5254 97.5684 20.7275C97.7793 20.9385 97.9199 21.0791 97.9814 21.167C98.043 21.2549 98.0957 21.3164 98.1309 21.3604L99.8447 19.6465L99.6426 19.3828C99.5107 19.2158 99.2998 19.0049 99.001 18.7588C98.7021 18.5127 98.3682 18.2666 97.9814 18.0205C97.5947 17.7744 97.1113 17.5723 96.5137 17.3965C95.916 17.2207 95.2832 17.1328 94.624 17.1328C92.6992 17.1328 91.0732 17.7744 89.7549 19.0576C88.4365 20.3408 87.7773 21.8877 87.7773 23.6982C87.7773 25.5088 88.4365 27.0645 89.7549 28.3477C91.0732 29.6309 92.6992 30.2725 94.624 30.2725C95.292 30.2725 95.9336 30.1846 96.5664 30.0088C97.1992 29.833 97.709 29.6396 98.0957 29.4287C98.4824 29.2178 98.8516 28.9717 99.2031 28.6904C99.5547 28.4092 99.7744 28.2158 99.8799 28.1016C99.9854 27.9873 100.056 27.8994 100.108 27.8379V23.1621H95.1602ZM108.563 26.3086C108.563 26.7832 108.379 27.1699 108.01 27.4688C107.641 27.7764 107.14 27.9258 106.489 27.9258C105.927 27.9258 105.382 27.8027 104.872 27.5479C104.354 27.3018 104.02 27.0996 103.87 26.9502C103.721 26.8008 103.606 26.6777 103.527 26.5811L101.901 28.1982L102.104 28.418C102.218 28.5586 102.411 28.7344 102.684 28.9365C102.947 29.1475 103.264 29.3496 103.615 29.543C103.967 29.7451 104.424 29.9209 104.969 30.0615C105.514 30.2021 106.085 30.2725 106.665 30.2725C108.159 30.2725 109.328 29.9033 110.172 29.165C111.016 28.4268 111.438 27.4775 111.438 26.3086C111.438 25.4824 111.227 24.8057 110.796 24.2607C110.374 23.7246 109.855 23.3379 109.24 23.1006C108.625 22.8721 108.019 22.6611 107.412 22.4854C106.806 22.3096 106.287 22.0986 105.865 21.8438C105.443 21.5889 105.224 21.2461 105.224 20.8242C105.224 20.4551 105.382 20.1299 105.698 19.8662C106.015 19.6025 106.428 19.4707 106.938 19.4707C107.368 19.4707 107.781 19.5762 108.186 19.7695C108.59 19.9717 108.862 20.1299 108.985 20.2529C109.108 20.376 109.205 20.4727 109.275 20.5605L110.893 18.8467L110.734 18.6709C110.638 18.5479 110.471 18.3984 110.242 18.2314C110.014 18.0645 109.741 17.8975 109.434 17.7393C109.126 17.5811 108.73 17.4404 108.247 17.3174C107.772 17.1943 107.271 17.1416 106.753 17.1416C105.452 17.1416 104.389 17.502 103.571 18.2227C102.754 18.9434 102.341 19.8135 102.341 20.833C102.341 21.6592 102.561 22.3359 102.982 22.8809C103.413 23.417 103.932 23.8037 104.538 24.041C105.145 24.2695 105.751 24.4717 106.366 24.6475C106.981 24.8232 107.5 25.0342 107.922 25.2979C108.344 25.5527 108.563 25.8867 108.563 26.3086ZM119.629 23.707C119.629 22.5469 120.016 21.5625 120.807 20.7627C121.589 19.9629 122.547 19.5586 123.672 19.5586C124.797 19.5586 125.755 19.9629 126.537 20.7627C127.328 21.5625 127.715 22.5469 127.715 23.707C127.715 24.8672 127.328 25.8516 126.537 26.6426C125.755 27.4424 124.797 27.8379 123.672 27.8379C122.547 27.8379 121.589 27.4424 120.807 26.6426C120.016 25.8516 119.629 24.8672 119.629 23.707ZM116.834 23.6982C116.834 25.5088 117.493 27.0645 118.812 28.3477C120.13 29.6309 121.756 30.2725 123.672 30.2725C125.588 30.2725 127.214 29.6309 128.532 28.3477C129.851 27.0645 130.51 25.5088 130.51 23.6982C130.51 21.8877 129.851 20.3408 128.532 19.0576C127.214 17.7744 125.588 17.1328 123.672 17.1328C121.756 17.1328 120.13 17.7744 118.812 19.0576C117.493 20.3408 116.834 21.8877 116.834 23.6982ZM135.739 30H138.622L143.307 17.3965H140.424L137.181 26.7568L133.946 17.3965H131.063L135.739 30ZM147.982 27.5742V24.7793H153.106V22.3535H147.982V19.8311H154.548V17.3965H145.275V30H154.732V27.5742H147.982ZM157.246 30H159.953V25.5879H162.291L164.717 30H167.6L164.901 25.2275L165.13 25.1045C165.288 25.0342 165.473 24.9023 165.701 24.709C165.921 24.5156 166.141 24.2871 166.352 24.0146C166.562 23.751 166.747 23.3906 166.905 22.9512C167.063 22.5117 167.143 22.0459 167.143 21.5361C167.143 20.376 166.738 19.4004 165.921 18.6006C165.104 17.8008 164.066 17.3965 162.818 17.3965H157.237L157.246 30ZM164.444 21.5361C164.444 21.9932 164.286 22.3799 163.961 22.6963C163.636 23.0127 163.223 23.1621 162.73 23.1621H159.944V19.8311H162.73C163.223 19.8311 163.636 19.998 163.961 20.3145C164.286 20.6396 164.444 21.0439 164.444 21.5361ZM172.46 17.3965V19.8311H176.063V30H178.762V19.8311H182.356V17.3965H172.46ZM184.334 30H187.041V17.3965H184.334V30ZM197.025 22.8896L192.71 17.3965H190.275V30H192.982V21.6328L197.025 26.7568L201.077 21.5977V30H203.775V17.3965H201.385L197.025 22.8896ZM209.717 27.5742V24.7793H214.841V22.3535H209.717V19.8311H216.282V17.3965H207.01V30H216.467V27.5742H209.717Z" fill="#4A4A4A"/>
<line x1="12" y1="45" x2="236" y2="45" stroke="#F6F6F6" stroke-width="2"/>
</svg>
