<svg width="12" height="13" viewBox="0 0 12 13" fill="none" xmlns="http://www.w3.org/2000/svg">
<path d="M8.33333 7.99251H7.80667L7.62 7.81251C8.27333 7.05251 8.66667 6.06585 8.66667 4.99251C8.66667 2.59918 6.72667 0.65918 4.33333 0.65918C1.94 0.65918 0 2.59918 0 4.99251C0 7.38585 1.94 9.32585 4.33333 9.32585C5.40667 9.32585 6.39333 8.93251 7.15333 8.27918L7.33333 8.46585V8.99251L10.6667 12.3192L11.66 11.3258L8.33333 7.99251ZM4.33333 7.99251C2.67333 7.99251 1.33333 6.65251 1.33333 4.99251C1.33333 3.33251 2.67333 1.99251 4.33333 1.99251C5.99333 1.99251 7.33333 3.33251 7.33333 4.99251C7.33333 6.65251 5.99333 7.99251 4.33333 7.99251Z" fill="#D0D0D0"/>
</svg>
