<svg width="327" height="59" viewBox="0 0 327 59" fill="none" xmlns="http://www.w3.org/2000/svg">
<path d="M0 15C0 6.71573 6.71573 0 15 0H312C320.284 0 327 6.71573 327 15V59H0V15Z" fill="white"/>
<path d="M91.4189 26.3086C91.4189 26.7832 91.2344 27.1699 90.8652 27.4688C90.4961 27.7764 89.9951 27.9258 89.3447 27.9258C88.7822 27.9258 88.2373 27.8027 87.7275 27.5479C87.209 27.3018 86.875 27.0996 86.7256 26.9502C86.5762 26.8008 86.4619 26.6777 86.3828 26.5811L84.7568 28.1982L84.959 28.418C85.0732 28.5586 85.2666 28.7344 85.5391 28.9365C85.8027 29.1475 86.1191 29.3496 86.4707 29.543C86.8223 29.7451 87.2793 29.9209 87.8242 30.0615C88.3691 30.2021 88.9404 30.2725 89.5205 30.2725C91.0146 30.2725 92.1836 29.9033 93.0273 29.165C93.8711 28.4268 94.293 27.4775 94.293 26.3086C94.293 25.4824 94.082 24.8057 93.6514 24.2607C93.2295 23.7246 92.7109 23.3379 92.0957 23.1006C91.4805 22.8721 90.874 22.6611 90.2676 22.4854C89.6611 22.3096 89.1426 22.0986 88.7207 21.8438C88.2988 21.5889 88.0791 21.2461 88.0791 20.8242C88.0791 20.4551 88.2373 20.1299 88.5537 19.8662C88.8701 19.6025 89.2832 19.4707 89.793 19.4707C90.2236 19.4707 90.6367 19.5762 91.041 19.7695C91.4453 19.9717 91.7178 20.1299 91.8408 20.2529C91.9639 20.376 92.0605 20.4727 92.1309 20.5605L93.748 18.8467L93.5898 18.6709C93.4932 18.5479 93.3262 18.3984 93.0977 18.2314C92.8691 18.0645 92.5967 17.8975 92.2891 17.7393C91.9814 17.5811 91.5859 17.4404 91.1025 17.3174C90.6279 17.1943 90.127 17.1416 89.6084 17.1416C88.3076 17.1416 87.2441 17.502 86.4268 18.2227C85.6094 18.9434 85.1963 19.8135 85.1963 20.833C85.1963 21.6592 85.416 22.3359 85.8379 22.8809C86.2686 23.417 86.7871 23.8037 87.3936 24.041C88 24.2695 88.6064 24.4717 89.2217 24.6475C89.8369 24.8232 90.3555 25.0342 90.7773 25.2979C91.1992 25.5527 91.4189 25.8867 91.4189 26.3086ZM99.4258 27.5742V24.7793H104.55V22.3535H99.4258V19.8311H105.991V17.3965H96.7188V30H106.176V27.5742H99.4258ZM115.176 24.6914H112.108L113.646 20.5518L115.176 24.6914ZM116.072 27.0293L117.153 30H120.036L115.079 17.3965H112.205L107.248 30H110.131L111.212 27.0293H116.072ZM121.838 30H124.545V25.5879H126.883L129.309 30H132.191L129.493 25.2275L129.722 25.1045C129.88 25.0342 130.064 24.9023 130.293 24.709C130.513 24.5156 130.732 24.2871 130.943 24.0146C131.154 23.751 131.339 23.3906 131.497 22.9512C131.655 22.5117 131.734 22.0459 131.734 21.5361C131.734 20.376 131.33 19.4004 130.513 18.6006C129.695 17.8008 128.658 17.3965 127.41 17.3965H121.829L121.838 30ZM129.036 21.5361C129.036 21.9932 128.878 22.3799 128.553 22.6963C128.228 23.0127 127.814 23.1621 127.322 23.1621H124.536V19.8311H127.322C127.814 19.8311 128.228 19.998 128.553 20.3145C128.878 20.6396 129.036 21.0439 129.036 21.5361ZM140.743 17.1328C138.818 17.1328 137.192 17.7744 135.874 19.0576C134.556 20.3408 133.896 21.8877 133.896 23.6982C133.896 25.5088 134.556 27.0645 135.874 28.3477C137.192 29.6309 138.818 30.2725 140.743 30.2725C141.394 30.2725 142.026 30.1846 142.642 30C143.257 29.8242 143.749 29.6221 144.127 29.4023C144.505 29.1826 144.856 28.9277 145.19 28.6377C145.524 28.3477 145.735 28.1455 145.832 28.0312C145.929 27.917 145.999 27.8203 146.052 27.75L144.426 26.0361L144.285 26.2207C144.188 26.3525 144.039 26.502 143.828 26.6777C143.617 26.8535 143.371 27.0293 143.099 27.2051C142.817 27.3809 142.475 27.5303 142.053 27.6533C141.631 27.7764 141.2 27.8379 140.743 27.8379C139.565 27.8379 138.581 27.4424 137.79 26.6514C136.999 25.8604 136.604 24.876 136.604 23.6982C136.604 22.5205 136.999 21.5361 137.79 20.7451C138.581 19.9541 139.565 19.5586 140.743 19.5586C141.165 19.5586 141.587 19.6289 142 19.7607C142.404 19.8926 142.738 20.0332 142.993 20.1914C143.239 20.3496 143.477 20.5254 143.688 20.7275C143.898 20.9385 144.039 21.0791 144.101 21.167C144.162 21.2549 144.215 21.3164 144.25 21.3604L145.964 19.6465L145.762 19.3828C145.63 19.2158 145.419 19.0049 145.12 18.7588C144.821 18.5127 144.487 18.2666 144.101 18.0205C143.714 17.7744 143.23 17.5723 142.633 17.3965C142.035 17.2207 141.402 17.1328 140.743 17.1328ZM159.007 17.3965H156.309V22.4414H150.912V17.3965H148.205V30H150.912V24.8672H156.309V30H159.007V17.3965ZM169.36 30H172.243L176.928 17.3965H174.045L170.802 26.7568L167.567 17.3965H164.685L169.36 30ZM180.25 23.707C180.25 22.5469 180.637 21.5625 181.428 20.7627C182.21 19.9629 183.168 19.5586 184.293 19.5586C185.418 19.5586 186.376 19.9629 187.158 20.7627C187.949 21.5625 188.336 22.5469 188.336 23.707C188.336 24.8672 187.949 25.8516 187.158 26.6426C186.376 27.4424 185.418 27.8379 184.293 27.8379C183.168 27.8379 182.21 27.4424 181.428 26.6426C180.637 25.8516 180.25 24.8672 180.25 23.707ZM177.455 23.6982C177.455 25.5088 178.114 27.0645 179.433 28.3477C180.751 29.6309 182.377 30.2725 184.293 30.2725C186.209 30.2725 187.835 29.6309 189.153 28.3477C190.472 27.0645 191.131 25.5088 191.131 23.6982C191.131 21.8877 190.472 20.3408 189.153 19.0576C187.835 17.7744 186.209 17.1328 184.293 17.1328C182.377 17.1328 180.751 17.7744 179.433 19.0576C178.114 20.3408 177.455 21.8877 177.455 23.6982ZM202.214 30V27.5742H196.369V17.3965H193.662V30H202.214ZM208.964 27.8379C208.19 27.8379 207.531 27.5566 206.986 26.9854C206.441 26.4141 206.169 25.7109 206.169 24.8672V17.3965H203.471V24.8672C203.471 26.4053 203.989 27.6885 205.035 28.7256C206.072 29.7627 207.382 30.2812 208.955 30.2812C210.528 30.2812 211.838 29.7627 212.884 28.7256C213.921 27.6885 214.448 26.4053 214.448 24.8672V17.3965H211.75V24.8672C211.75 25.7109 211.478 26.4229 210.933 26.9854C210.388 27.5566 209.729 27.8379 208.964 27.8379ZM224.354 22.8896L220.038 17.3965H217.604V30H220.311V21.6328L224.354 26.7568L228.405 21.5977V30H231.104V17.3965H228.713L224.354 22.8896ZM237.045 27.5742V24.7793H242.169V22.3535H237.045V19.8311H243.61V17.3965H234.338V30H243.795V27.5742H237.045Z" fill="#4A4A4A"/>
<line x1="12" y1="45" x2="313" y2="45" stroke="#F6F6F6" stroke-width="2"/>
</svg>
