<svg width="327" height="59" viewBox="0 0 327 59" fill="none" xmlns="http://www.w3.org/2000/svg">
<path d="M0 15C0 6.71573 6.71573 0 15 0H312C320.284 0 327 6.71573 327 15V59H0V15Z" fill="white"/>
<path d="M34.6914 23.707C34.6914 22.5469 35.0781 21.5625 35.8691 20.7627C36.6514 19.9629 37.6094 19.5586 38.7344 19.5586C39.8594 19.5586 40.8174 19.9629 41.5996 20.7627C42.3906 21.5625 42.7773 22.5469 42.7773 23.707C42.7773 24.8672 42.3906 25.8516 41.5996 26.6426C40.8174 27.4424 39.8594 27.8379 38.7344 27.8379C37.6094 27.8379 36.6514 27.4424 35.8691 26.6426C35.0781 25.8516 34.6914 24.8672 34.6914 23.707ZM31.8965 23.6982C31.8965 25.5088 32.5557 27.0645 33.874 28.3477C35.1924 29.6309 36.8184 30.2725 38.7344 30.2725C40.6504 30.2725 42.2764 29.6309 43.5947 28.3477C44.9131 27.0645 45.5723 25.5088 45.5723 23.6982C45.5723 21.8877 44.9131 20.3408 43.5947 19.0576C42.2764 17.7744 40.6504 17.1328 38.7344 17.1328C36.8184 17.1328 35.1924 17.7744 33.874 19.0576C32.5557 20.3408 31.8965 21.8877 31.8965 23.6982ZM50.8018 30H53.6846L58.3691 17.3965H55.4863L52.2432 26.7568L49.0088 17.3965H46.126L50.8018 30ZM63.0449 27.5742V24.7793H68.1689V22.3535H63.0449V19.8311H69.6104V17.3965H60.3379V30H69.7949V27.5742H63.0449ZM72.3086 30H75.0156V25.5879H77.3535L79.7793 30H82.6621L79.9639 25.2275L80.1924 25.1045C80.3506 25.0342 80.5352 24.9023 80.7637 24.709C80.9834 24.5156 81.2031 24.2871 81.4141 24.0146C81.625 23.751 81.8096 23.3906 81.9678 22.9512C82.126 22.5117 82.2051 22.0459 82.2051 21.5361C82.2051 20.376 81.8008 19.4004 80.9834 18.6006C80.166 17.8008 79.1289 17.3965 77.8809 17.3965H72.2998L72.3086 30ZM79.5068 21.5361C79.5068 21.9932 79.3486 22.3799 79.0234 22.6963C78.6982 23.0127 78.2852 23.1621 77.793 23.1621H75.0068V19.8311H77.793C78.2852 19.8311 78.6982 19.998 79.0234 20.3145C79.3486 20.6396 79.5068 21.0439 79.5068 21.5361ZM91.5742 24.6914H88.5068L90.0449 20.5518L91.5742 24.6914ZM92.4707 27.0293L93.5518 30H96.4346L91.4775 17.3965H88.6035L83.6465 30H86.5293L87.6104 27.0293H92.4707ZM106.788 30V27.5742H100.943V17.3965H98.2363V30H106.788ZM117.405 30V27.5742H111.561V17.3965H108.854V30H117.405ZM125.869 27.5742V24.7793H130.993V22.3535H125.869V19.8311H132.435V17.3965H123.162V30H132.619V27.5742H125.869ZM139.817 25.4121L142.876 30H145.935L141.522 23.4258L145.574 17.3965H142.516L139.817 21.4482L137.119 17.3965H134.052L138.104 23.4258L133.691 30H136.759L139.817 25.4121ZM147.736 17.3965V30H150.443V25.8604H153.045C154.346 25.8604 155.418 25.4561 156.271 24.6475C157.114 23.8389 157.545 22.8281 157.545 21.6328C157.545 20.4375 157.114 19.4268 156.262 18.6182C155.409 17.8096 154.337 17.4053 153.045 17.4053L147.736 17.3965ZM152.957 19.8398C153.493 19.8398 153.941 20.0068 154.302 20.3584C154.662 20.71 154.847 21.1318 154.847 21.6416C154.847 22.1426 154.662 22.5645 154.302 22.916C153.941 23.2588 153.493 23.4346 152.957 23.4346H150.443V19.8398H152.957ZM162.678 27.5742V24.7793H167.802V22.3535H162.678V19.8311H169.243V17.3965H159.971V30H169.428V27.5742H162.678ZM171.941 30H174.648V25.5879H176.986L179.412 30H182.295L179.597 25.2275L179.825 25.1045C179.983 25.0342 180.168 24.9023 180.396 24.709C180.616 24.5156 180.836 24.2871 181.047 24.0146C181.258 23.751 181.442 23.3906 181.601 22.9512C181.759 22.5117 181.838 22.0459 181.838 21.5361C181.838 20.376 181.434 19.4004 180.616 18.6006C179.799 17.8008 178.762 17.3965 177.514 17.3965H171.933L171.941 30ZM179.14 21.5361C179.14 21.9932 178.981 22.3799 178.656 22.6963C178.331 23.0127 177.918 23.1621 177.426 23.1621H174.64V19.8311H177.426C177.918 19.8311 178.331 19.998 178.656 20.3145C178.981 20.6396 179.14 21.0439 179.14 21.5361ZM184.721 30H187.428V17.3965H184.721V30ZM193.369 27.5742V24.7793H198.493V22.3535H193.369V19.8311H199.935V17.3965H190.662V30H200.119V27.5742H193.369ZM211.185 17.3965V25.4121L204.979 17.3965H202.633V30H205.34V21.9932L211.545 30H213.883V17.3965H211.185ZM223.243 17.1328C221.318 17.1328 219.692 17.7744 218.374 19.0576C217.056 20.3408 216.396 21.8877 216.396 23.6982C216.396 25.5088 217.056 27.0645 218.374 28.3477C219.692 29.6309 221.318 30.2725 223.243 30.2725C223.894 30.2725 224.526 30.1846 225.142 30C225.757 29.8242 226.249 29.6221 226.627 29.4023C227.005 29.1826 227.356 28.9277 227.69 28.6377C228.024 28.3477 228.235 28.1455 228.332 28.0312C228.429 27.917 228.499 27.8203 228.552 27.75L226.926 26.0361L226.785 26.2207C226.688 26.3525 226.539 26.502 226.328 26.6777C226.117 26.8535 225.871 27.0293 225.599 27.2051C225.317 27.3809 224.975 27.5303 224.553 27.6533C224.131 27.7764 223.7 27.8379 223.243 27.8379C222.065 27.8379 221.081 27.4424 220.29 26.6514C219.499 25.8604 219.104 24.876 219.104 23.6982C219.104 22.5205 219.499 21.5361 220.29 20.7451C221.081 19.9541 222.065 19.5586 223.243 19.5586C223.665 19.5586 224.087 19.6289 224.5 19.7607C224.904 19.8926 225.238 20.0332 225.493 20.1914C225.739 20.3496 225.977 20.5254 226.188 20.7275C226.398 20.9385 226.539 21.0791 226.601 21.167C226.662 21.2549 226.715 21.3164 226.75 21.3604L228.464 19.6465L228.262 19.3828C228.13 19.2158 227.919 19.0049 227.62 18.7588C227.321 18.5127 226.987 18.2666 226.601 18.0205C226.214 17.7744 225.73 17.5723 225.133 17.3965C224.535 17.2207 223.902 17.1328 223.243 17.1328ZM233.412 27.5742V24.7793H238.536V22.3535H233.412V19.8311H239.978V17.3965H230.705V30H240.162V27.5742H233.412Z" fill="#4A4A4A"/>
<line x1="12" y1="45" x2="313" y2="45" stroke="#F6F6F6" stroke-width="2"/>
</svg>
